<svg
        xmlns="http://www.w3.org/2000/svg"
        width="38px" height="38px">
    <path fill-rule="evenodd"  fill="rgb(0, 209, 93)"
          d="M35.868,10.076 C37.022,12.248 37.769,14.667 38.005,17.233 L34.070,17.233 L34.068,17.233 L34.068,20.772 L38.004,20.772 C37.767,23.338 37.020,25.757 35.866,27.929 L33.736,26.699 L33.028,27.925 L35.145,29.148 C33.630,31.552 31.600,33.590 29.202,35.114 L27.955,32.971 L26.732,33.683 L27.987,35.839 C25.800,37.012 23.359,37.766 20.770,38.005 L20.770,34.010 L17.232,34.010 L17.232,38.005 C14.643,37.767 12.202,37.012 10.015,35.839 L11.271,33.683 L10.048,32.971 L8.800,35.114 C6.403,33.590 4.373,31.550 2.857,29.148 L4.974,27.924 L4.266,26.698 L2.135,27.929 C0.981,25.755 0.235,23.337 -0.002,20.770 L3.936,20.770 L3.936,17.232 L0.000,17.232 C0.237,14.665 0.984,12.247 2.138,10.074 L4.268,11.305 L4.976,10.079 L2.859,8.856 C4.374,6.453 6.404,4.414 8.802,2.890 L10.049,5.033 L11.273,4.321 L10.017,2.164 C12.204,0.992 14.645,0.237 17.234,-0.002 L17.234,3.995 L20.772,3.995 L20.772,-0.001 C23.361,0.238 25.802,0.993 27.989,2.166 L26.734,4.322 L27.957,5.035 L29.204,2.892 C31.602,4.415 33.631,6.455 35.147,8.857 L33.030,10.081 L33.738,11.307 L35.868,10.076 ZM18.588,24.009 C18.588,23.215 17.942,22.568 17.147,22.568 L12.711,22.568 C12.998,22.390 13.398,22.154 13.908,21.864 L15.116,21.177 C16.179,20.575 16.932,20.034 17.416,19.525 C18.179,18.730 18.566,17.804 18.566,16.769 C18.566,15.429 18.017,14.337 16.935,13.526 C15.897,12.745 14.497,12.349 12.776,12.349 C10.561,12.349 8.985,13.041 8.090,14.405 C7.770,14.893 7.544,15.484 7.418,16.161 C7.349,16.532 7.447,16.910 7.686,17.198 C7.942,17.506 8.328,17.683 8.744,17.683 L9.750,17.683 C10.490,17.683 11.143,17.181 11.269,16.516 C11.315,16.268 11.380,16.074 11.459,15.943 C11.700,15.546 12.177,15.352 12.919,15.352 C13.465,15.352 13.860,15.477 14.129,15.736 C14.392,15.987 14.520,16.298 14.520,16.685 C14.520,17.180 14.267,17.637 13.750,18.080 C13.365,18.404 12.482,18.963 11.127,19.742 C9.430,20.712 8.373,21.627 7.912,22.509 C7.607,23.010 7.389,23.551 7.263,24.118 C7.182,24.486 7.269,24.862 7.503,25.155 C7.754,25.468 8.156,25.655 8.575,25.655 L17.145,25.655 C17.940,25.655 18.586,25.008 18.586,24.214 L18.588,24.214 L18.588,24.009 ZM29.421,20.161 C29.209,20.161 29.036,19.946 29.036,19.681 L29.036,13.926 C29.036,13.131 28.389,12.484 27.595,12.484 L26.134,12.484 C25.450,12.484 24.624,12.897 24.212,13.441 L19.737,19.366 C19.352,19.877 19.062,20.744 19.062,21.382 L19.062,21.572 C19.062,22.365 19.709,23.012 20.503,23.012 L24.648,23.012 C24.913,23.012 25.128,23.228 25.128,23.493 L25.128,24.214 C25.128,25.008 25.774,25.655 26.568,25.655 L27.596,25.655 C28.390,25.655 29.036,25.008 29.036,24.214 L29.036,23.493 C29.036,23.228 29.210,23.012 29.422,23.012 C30.165,23.012 30.769,22.373 30.768,21.586 C30.768,20.800 30.165,20.161 29.421,20.161 ZM24.648,20.161 L22.744,20.161 C22.737,20.161 22.730,20.161 22.723,20.161 C22.727,20.156 22.731,20.150 22.735,20.145 L25.128,16.834 L25.128,19.681 C25.128,19.945 24.913,20.161 24.648,20.161 Z"/>
</svg>