<svg
        xmlns="http://www.w3.org/2000/svg"
        width="38px" height="38px">
    <path fill-rule="evenodd"  fill="rgb(0, 209, 93)"
          d="M33.601,12.589 L33.601,23.068 L23.950,23.068 L23.950,12.589 L19.551,12.589 L28.775,0.000 L38.000,12.589 L33.601,12.589 ZM21.626,25.707 L11.975,25.707 L11.975,15.641 L21.626,15.641 L21.626,25.707 ZM0.000,30.161 L9.651,30.161 L9.651,37.999 L0.000,37.999 L0.000,30.161 ZM0.000,20.097 L9.651,20.097 L9.651,27.935 L0.000,27.935 L0.000,20.097 ZM21.626,38.000 L11.975,38.000 L11.975,27.934 L21.626,27.934 L21.626,38.000 ZM33.601,38.000 L23.950,38.000 L23.950,25.294 L33.601,25.294 L33.601,38.000 Z"/>
</svg>