<svg
        xmlns="http://www.w3.org/2000/svg"
        width="36px" height="35px">
    <path fill-rule="evenodd"  fill="rgb(0, 209, 93)"
          d="M35.719,14.486 C34.787,9.581 32.188,5.718 27.943,2.931 C24.718,0.814 21.118,-0.194 17.242,0.031 C10.490,0.424 5.421,3.546 2.123,9.291 C0.530,12.067 -0.157,15.097 0.032,18.266 C0.381,24.138 3.081,28.765 8.076,32.084 C10.660,33.800 13.550,34.728 16.676,34.944 C16.768,34.951 16.858,34.981 16.949,35.000 C17.675,35.000 18.401,35.000 19.128,35.000 C19.797,34.910 20.472,34.850 21.134,34.724 C27.186,33.574 31.578,30.295 34.294,24.921 C35.264,23.004 35.790,20.955 35.941,18.820 C35.947,18.743 35.980,18.669 36.000,18.594 C36.000,17.888 36.000,17.181 36.000,16.475 C35.908,15.812 35.844,15.143 35.719,14.486 ZM11.786,22.341 C11.691,22.348 11.612,22.360 11.533,22.360 C10.021,22.361 8.510,22.363 6.999,22.358 C6.405,22.355 6.119,22.072 6.119,21.488 C6.116,18.629 6.117,15.769 6.118,12.910 C6.118,12.833 6.126,12.756 6.131,12.664 C6.641,12.664 7.129,12.664 7.662,12.664 C7.662,15.401 7.662,18.138 7.662,20.908 C9.060,20.908 10.413,20.908 11.786,20.908 C11.786,21.403 11.786,21.863 11.786,22.341 ZM15.056,22.341 C14.554,22.341 14.067,22.341 13.540,22.341 C13.540,19.106 13.540,15.902 13.540,12.672 C14.046,12.672 14.540,12.672 15.056,12.672 C15.056,15.895 15.056,19.108 15.056,22.341 ZM22.572,13.546 C21.884,16.225 21.194,18.903 20.504,21.581 C20.481,21.669 20.460,21.758 20.427,21.843 C20.298,22.171 20.050,22.315 19.689,22.299 C19.347,22.283 19.149,22.100 19.066,21.796 C18.828,20.917 18.599,20.036 18.367,19.155 C17.901,17.383 17.437,15.610 16.971,13.838 C16.800,13.187 16.964,12.797 17.460,12.684 C17.927,12.577 18.271,12.860 18.429,13.479 C18.830,15.045 19.231,16.611 19.634,18.176 C19.660,18.280 19.698,18.381 19.731,18.483 C19.753,18.483 19.775,18.483 19.797,18.483 C19.970,17.818 20.145,17.153 20.317,16.487 C20.580,15.462 20.840,14.436 21.104,13.411 C21.231,12.917 21.531,12.675 21.952,12.719 C22.378,12.763 22.673,13.155 22.572,13.546 ZM29.158,18.292 C28.010,18.292 26.859,18.292 25.687,18.292 C25.687,19.204 25.687,20.074 25.687,20.973 C26.844,20.973 27.987,20.973 29.154,20.973 C29.154,21.483 29.154,21.965 29.154,22.488 C28.836,22.488 28.524,22.488 28.211,22.488 C27.181,22.487 26.150,22.489 25.119,22.486 C24.474,22.484 24.191,22.216 24.190,21.596 C24.188,18.909 24.188,16.221 24.190,13.533 C24.191,12.983 24.446,12.662 24.951,12.656 C26.343,12.639 27.735,12.650 29.135,12.650 C29.135,13.133 29.135,13.593 29.135,14.088 C27.970,14.088 26.839,14.088 25.674,14.088 C25.674,15.011 25.674,15.875 25.674,16.783 C26.834,16.783 27.986,16.783 29.158,16.783 C29.158,17.300 29.158,17.774 29.158,18.292 Z"/>
</svg>