<svg
        xmlns="http://www.w3.org/2000/svg"
        width="25px" height="38px">
    <path fill-rule="evenodd"  fill="rgb(0, 209, 93)"
          d="M12.500,25.801 C5.609,25.801 0.000,20.011 0.000,12.900 C0.000,5.789 5.609,-0.000 12.500,-0.000 C19.391,-0.000 25.000,5.789 25.000,12.900 C25.000,20.011 19.391,25.801 12.500,25.801 ZM12.500,3.079 C7.244,3.079 2.983,7.476 2.983,12.900 C2.983,18.325 7.244,22.722 12.500,22.722 C17.752,22.713 22.008,18.321 22.017,12.900 C22.017,7.476 17.756,3.079 12.500,3.079 ZM12.500,21.647 C7.820,21.647 4.025,17.731 4.025,12.900 C4.025,8.070 7.820,4.154 12.500,4.154 C17.178,4.161 20.968,8.073 20.975,12.900 C20.975,17.731 17.181,21.647 12.500,21.647 ZM12.500,27.028 C15.124,27.032 17.695,26.266 19.913,24.819 L20.562,38.000 L13.342,31.578 C12.877,31.115 12.141,31.115 11.677,31.578 L4.456,38.000 L5.088,24.819 C7.305,26.266 9.876,27.032 12.500,27.028 Z"/>
</svg>